<?xml version="1.0" encoding="UTF-8" standalone="no"?>
<!-- Generated by IcoMoon.io -->

<svg
   xmlns:dc="http://purl.org/dc/elements/1.1/"
   xmlns:cc="http://creativecommons.org/ns#"
   xmlns:rdf="http://www.w3.org/1999/02/22-rdf-syntax-ns#"
   xmlns:svg="http://www.w3.org/2000/svg"
   xmlns="http://www.w3.org/2000/svg"
   xmlns:sodipodi="http://sodipodi.sourceforge.net/DTD/sodipodi-0.dtd"
   xmlns:inkscape="http://www.inkscape.org/namespaces/inkscape"
   version="1.1"
   width="32"
   height="32"
   viewBox="0 0 32 32"
   id="svg831"
   sodipodi:docname="i.svg"
   inkscape:version="0.92.2 (5c3e80d, 2017-08-06)">
  <metadata
     id="metadata837">
    <rdf:RDF>
      <cc:Work
         rdf:about="">
        <dc:format>image/svg+xml</dc:format>
        <dc:type
           rdf:resource="http://purl.org/dc/dcmitype/StillImage" />
        <dc:title>eye</dc:title>
      </cc:Work>
    </rdf:RDF>
  </metadata>
  <defs
     id="defs835" />
  <sodipodi:namedview
     pagecolor="#ffffff"
     bordercolor="#666666"
     borderopacity="1"
     objecttolerance="10"
     gridtolerance="10"
     guidetolerance="10"
     inkscape:pageopacity="0"
     inkscape:pageshadow="2"
     inkscape:window-width="1920"
     inkscape:window-height="1046"
     id="namedview833"
     showgrid="false"
     inkscape:zoom="12.859375"
     inkscape:cx="22.729912"
     inkscape:cy="3.6946661"
     inkscape:window-x="-11"
     inkscape:window-y="-11"
     inkscape:window-maximized="1"
     inkscape:current-layer="svg831" />
  <title
     id="title827">eye</title>
  <path
     style="font-style:normal;font-weight:normal;font-size:medium;line-height:1.25;font-family:sans-serif;letter-spacing:0px;word-spacing:0px;opacity:1;fill:#000000;fill-opacity:1;stroke:none;stroke-width:1.00365853"
     d="M 16 0 A 16 16 0 0 0 0 16 A 16 16 0 0 0 16 32 A 16 16 0 0 0 32 16 A 16 16 0 0 0 16 0 z M 17.087891 5.4433594 C 17.405707 5.4433594 17.696853 5.483046 17.955078 5.5625 C 18.223235 5.641954 18.451922 5.7610139 18.640625 5.9199219 C 18.829328 6.0788298 18.970994 6.2715698 19.070312 6.5 C 19.179566 6.7284301 19.236328 6.9911102 19.236328 7.2890625 C 19.236328 7.6068785 19.179565 7.8960715 19.070312 8.1542969 C 18.961062 8.4025907 18.813703 8.6161505 18.625 8.7949219 C 18.436297 8.9637616 18.20761 9.0979486 17.939453 9.1972656 C 17.681227 9.2866511 17.395775 9.3300781 17.087891 9.3300781 C 16.809803 9.3300781 16.549076 9.2866516 16.300781 9.1972656 C 16.052488 9.1078798 15.833234 8.9831268 15.644531 8.8242188 C 15.455828 8.6553791 15.300822 8.4569458 15.181641 8.2285156 C 15.072389 7.9901537 15.019531 7.7217806 15.019531 7.4238281 C 15.019531 7.1060122 15.072387 6.8282057 15.181641 6.5898438 C 15.300822 6.3415501 15.455828 6.1336835 15.644531 5.9648438 C 15.833234 5.7960041 16.052488 5.6655579 16.300781 5.5761719 C 16.549076 5.4867855 16.809803 5.4433594 17.087891 5.4433594 z M 18.609375 9.9902344 L 16.402344 20.076172 C 16.392444 20.135762 16.367855 20.24913 16.328125 20.417969 C 16.298334 20.576877 16.258644 20.765876 16.208984 20.984375 C 16.169259 21.202874 16.123879 21.437253 16.074219 21.685547 C 16.024563 21.933841 15.979183 22.166268 15.939453 22.384766 C 15.899727 22.603265 15.865728 22.797958 15.835938 22.966797 C 15.806148 23.135637 15.791016 23.249004 15.791016 23.308594 C 15.791016 23.447639 15.815574 23.59695 15.865234 23.755859 C 15.914894 23.904834 15.994268 24.039022 16.103516 24.158203 C 16.222697 24.277385 16.377703 24.377581 16.566406 24.457031 C 16.765041 24.536491 17.012595 24.576172 17.310547 24.576172 C 17.399937 24.576172 17.515253 24.564812 17.654297 24.544922 C 17.793342 24.525052 17.940701 24.496761 18.099609 24.457031 C 18.258517 24.417305 18.428651 24.371926 18.607422 24.322266 C 18.786193 24.272606 18.960066 24.212098 19.128906 24.142578 L 19.619141 24.142578 L 19.619141 25.439453 C 19.241735 25.657953 18.844867 25.841259 18.427734 25.990234 C 18.020532 26.129279 17.617973 26.238909 17.220703 26.318359 C 16.833364 26.407753 16.466753 26.466294 16.119141 26.496094 C 15.77153 26.535824 15.469162 26.556641 15.210938 26.556641 C 14.764009 26.556641 14.380315 26.482959 14.0625 26.333984 C 13.744684 26.185009 13.482005 25.999749 13.273438 25.78125 C 13.074803 25.552821 12.925492 25.31096 12.826172 25.052734 C 12.726854 24.784577 12.677734 24.535071 12.677734 24.306641 C 12.677734 24.028553 12.71173 23.705366 12.78125 23.337891 C 12.86071 22.970416 12.945766 22.564115 13.035156 22.117188 L 14.912109 13.580078 C 14.961773 13.37151 14.942906 13.209025 14.853516 13.089844 C 14.764126 12.970663 14.631896 12.870466 14.453125 12.791016 L 12.380859 11.867188 L 12.380859 10.839844 L 18.609375 9.9902344 z "
     id="path4538" />
</svg>
